<svg width="29" height="29" viewBox="0 0 29 29" fill="none" xmlns="http://www.w3.org/2000/svg">
<g clip-path="url(#clip0_4_299)">
<path d="M19.8 7.20001V21C19.8 23.652 17.652 25.8 15 25.8C12.348 25.8 10.2 23.652 10.2 21V6.00001C10.2 4.34401 11.544 3.00001 13.2 3.00001C14.856 3.00001 16.2 4.34401 16.2 6.00001V18.6C16.2 19.26 15.66 19.8 15 19.8C14.34 19.8 13.8 19.26 13.8 18.6V7.20001H12V18.6C12 20.256 13.344 21.6 15 21.6C16.656 21.6 18 20.256 18 18.6V6.00001C18 3.34801 15.852 1.20001 13.2 1.20001C10.548 1.20001 8.40002 3.34801 8.40002 6.00001V21C8.40002 24.648 11.352 27.6 15 27.6C18.648 27.6 21.6 24.648 21.6 21V7.20001H19.8Z" fill="#F5EFFF"/>
</g>
<defs>
<clipPath id="clip0_4_299">
<rect width="28.8" height="28.8" fill="white"/>
</clipPath>
</defs>
</svg>
